<svg width="32" height="32" viewBox="0 0 32 32" fill="none" xmlns="http://www.w3.org/2000/svg">
<path d="M10.6666 16H17.3333M21.3332 12.6668C20.6245 11.8383 19.679 11.2469 18.624 10.9722C17.569 10.6975 16.4551 10.7527 15.4324 11.1304C14.4097 11.5081 13.5274 12.1902 12.9042 13.0847C12.281 13.9792 11.9469 15.0432 11.9469 16.1335C11.9469 17.2237 12.281 18.2877 12.9042 19.1822C13.5274 20.0767 14.4097 20.7588 15.4324 21.1365C16.4551 21.5142 17.569 21.5694 18.624 21.2947C19.679 21.02 20.6245 20.4286 21.3332 19.6001M5.33325 2.66666V29.3333L7.99992 28L10.6666 29.3333L13.3333 28L15.9999 29.3333L18.6666 28L21.3333 29.3333L23.9999 28L26.6666 29.3333V2.66666L23.9999 3.99999L21.3333 2.66666L18.6666 3.99999L15.9999 2.66666L13.3333 3.99999L10.6666 2.66666L7.99992 3.99999L5.33325 2.66666Z" stroke="black" stroke-width="2" stroke-linecap="round" stroke-linejoin="round"/>
</svg>
