<svg width="32" height="32" viewBox="0 0 32 32" fill="none" xmlns="http://www.w3.org/2000/svg">
<path d="M10.6667 16H17.3334M21.3333 12.6668C20.6247 11.8383 19.6792 11.2469 18.6241 10.9722C17.5691 10.6975 16.4552 10.7527 15.4325 11.1304C14.4099 11.5081 13.5275 12.1902 12.9043 13.0847C12.2811 13.9792 11.947 15.0432 11.947 16.1335C11.947 17.2237 12.2811 18.2877 12.9043 19.1822C13.5275 20.0767 14.4099 20.7588 15.4325 21.1365C16.4552 21.5142 17.5691 21.5694 18.6241 21.2947C19.6792 21.02 20.6247 20.4286 21.3333 19.6001M5.33337 2.66666V29.3333L8.00004 28L10.6667 29.3333L13.3334 28L16 29.3333L18.6667 28L21.3334 29.3333L24 28L26.6667 29.3333V2.66666L24 3.99999L21.3334 2.66666L18.6667 3.99999L16 2.66666L13.3334 3.99999L10.6667 2.66666L8.00004 3.99999L5.33337 2.66666Z" stroke="white" stroke-width="2" stroke-linecap="round" stroke-linejoin="round"/>
</svg>
