<svg width="33" height="32" viewBox="0 0 33 32" fill="none" xmlns="http://www.w3.org/2000/svg">
<path fillRule="evenodd" clipRule="evenodd" d="M29.9999 16.1867C30.0061 18.2814 28.3951 20.0261 26.3066 20.1867L11.3999 21.3333C11.5466 22.6667 11.9599 22.6667 12.6666 22.6667H27.3333C27.7347 22.6514 28.1217 22.8179 28.3866 23.12C29.7945 23.9242 30.4194 25.6249 29.8674 27.1494C29.3153 28.6739 27.7464 29.58 26.15 29.2963C24.5536 29.0126 23.3929 27.6214 23.3999 26C23.4016 25.7762 23.4239 25.553 23.4666 25.3333H17.9999C18.0203 25.5551 18.0203 25.7783 17.9999 26C17.9999 27.841 16.5075 29.3333 14.6666 29.3333C12.8256 29.3333 11.3333 27.841 11.3333 26C11.3342 25.7299 11.37 25.461 11.4399 25.2C8.66658 24.5467 8.66659 21.6667 8.66659 20.1067L6.19992 5.33334H4.66659C3.93021 5.33334 3.33325 4.73639 3.33325 4.00001C3.33325 3.26363 3.93021 2.66668 4.66659 2.66668H7.33325C7.99378 2.65818 8.56095 3.1346 8.66659 3.78668L8.90659 5.33334L28.7599 6.66668C29.4596 6.71577 30.0016 7.29859 29.9999 8.00001V16.1867ZM27.3333 26C27.3333 25.6318 27.0348 25.3333 26.6666 25.3333C26.2984 25.3333 25.9999 25.6318 25.9999 26C25.9999 26.3682 26.2984 26.6667 26.6666 26.6667C27.0348 26.6667 27.3333 26.3682 27.3333 26ZM14.6666 25.3333C15.0348 25.3333 15.3333 25.6318 15.3333 26C15.3333 26.3682 15.0348 26.6667 14.6666 26.6667C14.2984 26.6667 13.9999 26.3682 13.9999 26C13.9999 25.6318 14.2984 25.3333 14.6666 25.3333ZM11.1333 18.6667H11.2266L26.1066 17.5333C26.801 17.4776 27.3355 16.8967 27.3333 16.2V9.25334L9.35992 8.00001L11.1333 18.6667Z" fill="white"/>
</svg>
