<svg width="33" height="32" viewBox="0 0 33 32" fill="none" xmlns="http://www.w3.org/2000/svg">
<path fill-rule="evenodd" clip-rule="evenodd" d="M30.0002 16.1867C30.0063 18.2814 28.3954 20.0261 26.3068 20.1867L11.4002 21.3333C11.5468 22.6667 11.9602 22.6667 12.6668 22.6667H27.3335C27.735 22.6514 28.122 22.8179 28.3868 23.12C29.7947 23.9242 30.4197 25.6249 29.8676 27.1494C29.3156 28.6739 27.7466 29.58 26.1502 29.2963C24.5539 29.0126 23.3932 27.6214 23.4002 26C23.4018 25.7762 23.4242 25.553 23.4668 25.3333H18.0002C18.0206 25.5551 18.0206 25.7783 18.0002 26C18.0002 27.841 16.5078 29.3333 14.6668 29.3333C12.8259 29.3333 11.3335 27.841 11.3335 26C11.3344 25.7299 11.3703 25.461 11.4402 25.2C8.66683 24.5467 8.66683 21.6667 8.66683 20.1067L6.20016 5.33334H4.66683C3.93045 5.33334 3.3335 4.73639 3.3335 4.00001C3.3335 3.26363 3.93045 2.66668 4.66683 2.66668H7.3335C7.99402 2.65818 8.56119 3.1346 8.66683 3.78668L8.90683 5.33334L28.7602 6.66668C29.4599 6.71577 30.0019 7.29859 30.0002 8.00001V16.1867ZM27.3335 26C27.3335 25.6318 27.035 25.3333 26.6668 25.3333C26.2986 25.3333 26.0002 25.6318 26.0002 26C26.0002 26.3682 26.2986 26.6667 26.6668 26.6667C27.035 26.6667 27.3335 26.3682 27.3335 26ZM14.6668 25.3333C15.035 25.3333 15.3335 25.6318 15.3335 26C15.3335 26.3682 15.035 26.6667 14.6668 26.6667C14.2986 26.6667 14.0002 26.3682 14.0002 26C14.0002 25.6318 14.2986 25.3333 14.6668 25.3333ZM11.1335 18.6667H11.2268L26.1068 17.5333C26.8013 17.4776 27.3357 16.8967 27.3335 16.2V9.25334L9.36016 8.00001L11.1335 18.6667Z" fill="black"/>
</svg>
