<svg width="24" height="24" viewBox="0 0 24 24" fill="none" xmlns="http://www.w3.org/2000/svg">
<g clip-path="url(#clip0_603_974)">
<path fill-rule="evenodd" clip-rule="evenodd" d="M7.75736 20.9853C7.17157 21.5711 6.22182 21.5711 5.63603 20.9853C5.1744 20.5237 5.07656 19.836 5.34251 19.2785L5.22145 19.1575C4.66401 19.4234 3.97635 19.3256 3.51471 18.864C2.92893 18.2782 2.92893 17.3284 3.51471 16.7426C4.1005 16.1569 5.05025 16.1569 5.63603 16.7426C5.76019 16.8668 5.85803 17.0073 5.92956 17.1572L8.11091 14.9749L9.52512 16.3891L7.34373 18.5709C7.49329 18.6424 7.63346 18.7401 7.75736 18.864C8.34314 19.4497 8.34314 20.3995 7.75736 20.9853ZM19.4246 5.07538C21.7678 7.41853 21.7678 11.2175 19.4246 13.5607C18.5427 14.4426 16.8653 15.1165 14.3923 15.5823C13.4044 15.7684 12.4955 16.248 11.7843 16.9585L11.6464 17.0962C11.2559 17.4867 10.6228 17.4867 10.2322 17.0962L7.4038 14.2678C7.01328 13.8772 7.01328 13.2441 7.4038 12.8536L7.53986 12.7175C8.25149 12.0059 8.73182 11.0962 8.91805 10.1072C9.38368 7.63454 10.0574 5.95727 10.9393 5.07538C13.2825 2.73224 17.0815 2.73224 19.4246 5.07538Z" stroke="white" stroke-linecap="round"/>
</g>
<defs>
<clipPath id="clip0_603_974">
<rect width="24" height="24" fill="white"/>
</clipPath>
</defs>
</svg>
