<svg width="33" height="32" viewBox="0 0 33 32" fill="none" xmlns="http://www.w3.org/2000/svg">
<path fillRule="evenodd" clipRule="evenodd" d="M29.6667 25.3333C29.6667 27.5425 27.8758 29.3333 25.6667 29.3333H7C4.79086 29.3333 3 27.5425 3 25.3333V6.66666C3 4.45752 4.79086 2.66666 7 2.66666H25.6667C27.8758 2.66666 29.6667 4.45752 29.6667 6.66666V25.3333ZM15 7.99999H23C23.7364 7.99999 24.3333 8.59694 24.3333 9.33332C24.3333 10.0697 23.7364 10.6667 23 10.6667H15C14.2636 10.6667 13.6667 10.0697 13.6667 9.33332C13.6667 8.59694 14.2636 7.99999 15 7.99999ZM11 9.33332C10.9979 9.15909 10.9617 8.98695 10.8933 8.82666C10.8258 8.66508 10.7311 8.51626 10.6133 8.38666C10.4837 8.26888 10.3349 8.17418 10.1733 8.10666C9.6768 7.89786 9.10341 8.00833 8.72 8.38666C8.60223 8.51626 8.50752 8.66508 8.44 8.82666C8.37168 8.98695 8.33544 9.15909 8.33333 9.33332C8.33128 9.68773 8.47042 10.0284 8.72 10.28C8.97551 10.5236 9.31364 10.6617 9.66667 10.6667C9.84157 10.6712 10.0151 10.6346 10.1733 10.56C10.3349 10.4925 10.4837 10.3978 10.6133 10.28C10.857 10.0245 10.9951 9.68635 11 9.33332ZM10.1733 14.7733C9.6768 14.5645 9.10341 14.675 8.72 15.0533C8.59653 15.1785 8.50109 15.3285 8.44 15.4933C8.37168 15.6536 8.33544 15.8258 8.33333 16C8.33128 16.3544 8.47042 16.695 8.72 16.9467C8.97551 17.1903 9.31364 17.3284 9.66667 17.3333C9.8409 17.3312 10.013 17.295 10.1733 17.2267C10.3349 17.1591 10.4837 17.0644 10.6133 16.9467L10.7733 16.7467C10.8238 16.6723 10.8641 16.5916 10.8933 16.5067C10.9411 16.4326 10.977 16.3517 11 16.2667C11.0065 16.1779 11.0065 16.0888 11 16C10.9951 15.647 10.857 15.3088 10.6133 15.0533C10.4837 14.9355 10.3349 14.8408 10.1733 14.7733ZM15 14.6667H23C23.7364 14.6667 24.3333 15.2636 24.3333 16C24.3333 16.7364 23.7364 17.3333 23 17.3333H15C14.2636 17.3333 13.6667 16.7364 13.6667 16C13.6667 15.2636 14.2636 14.6667 15 14.6667ZM10.6133 21.72C10.4837 21.6022 10.3349 21.5075 10.1733 21.44C9.6768 21.2312 9.10341 21.3417 8.72 21.72C8.59861 21.8468 8.50346 21.9963 8.44 22.16C8.29736 22.4827 8.29736 22.8506 8.44 23.1733C8.50346 23.337 8.59861 23.4865 8.72 23.6133C8.97551 23.857 9.31364 23.9951 9.66667 24C9.8409 23.9979 10.013 23.9616 10.1733 23.8933C10.3349 23.8258 10.4837 23.7311 10.6133 23.6133C10.7347 23.4865 10.8299 23.337 10.8933 23.1733C11.036 22.8506 11.036 22.4827 10.8933 22.16C10.8299 21.9963 10.7347 21.8468 10.6133 21.72ZM15 21.3333H23C23.7364 21.3333 24.3333 21.9303 24.3333 22.6667C24.3333 23.403 23.7364 24 23 24H15C14.2636 24 13.6667 23.403 13.6667 22.6667C13.6667 21.9303 14.2636 21.3333 15 21.3333ZM25.6667 5.33332C26.403 5.33332 27 5.93028 27 6.66666V25.3333C27 26.0697 26.403 26.6667 25.6667 26.6667H7C6.26362 26.6667 5.66667 26.0697 5.66667 25.3333V6.66666C5.66667 5.93028 6.26362 5.33332 7 5.33332H25.6667Z" fill="white"/>
</svg>
