<svg width="28" height="29" viewBox="0 0 28 29" fill="none" xmlns="http://www.w3.org/2000/svg">
<g id="Group">
<g id="Layer_25">
<path id="Shape" fill-rule="evenodd" clip-rule="evenodd" d="M24.6666 9.32L26.88 11.3333C27.4316 11.8197 27.4853 12.6608 27 13.2133C26.5136 13.7649 25.6725 13.8186 25.12 13.3333L24.6666 12.9333V24.3333C24.6666 26.5425 22.8758 28.3333 20.6666 28.3333H16.6666C15.9303 28.3333 15.3333 27.7364 15.3333 27V20.3333C15.339 19.986 15.1987 19.6523 14.9466 19.4133C14.6994 19.154 14.3583 19.005 14 19C13.2636 19 12.6666 19.597 12.6666 20.3333V27C12.6666 27.7364 12.0697 28.3333 11.3333 28.3333H7.33331C5.12417 28.3333 3.33331 26.5425 3.33331 24.3333V12.9333L2.87998 13.3333C2.32409 13.7811 1.5142 13.7116 1.04265 13.1758C0.571114 12.6399 0.605197 11.8278 1.11998 11.3333L3.33331 9.32L4.46664 8.33333L13.12 0.666668C13.6233 0.224473 14.3766 0.224473 14.88 0.666668L23.5333 8.33333L24.6666 9.32ZM20.6666 25.6667C21.403 25.6667 22 25.0697 22 24.3333V10.56L14 3.45333L5.99998 10.56V24.3333C5.99998 25.0697 6.59693 25.6667 7.33331 25.6667H9.99998V20.3333C9.99998 18.1242 11.7908 16.3333 14 16.3333C16.2091 16.3333 18 18.1242 18 20.3333V25.6667H20.6666Z" fill="black"/>
</g>
</g>
</svg>
