<svg width="24" height="24" viewBox="0 0 24 24" fill="none" xmlns="http://www.w3.org/2000/svg">
<g clip-path="url(#clip0_603_981)">
<path d="M3.49999 20.5L18.0355 5.96446M3.49999 20.5L4.79087 19.2091C5.85259 18.1474 6.06118 16.5017 5.29791 15.2087M3.49999 20.5L7.66568 16.3343C8.63624 15.3637 8.63624 13.7902 7.66568 12.8196M3.49999 20.5L11.2012 12.7988C11.7812 12.2187 11.7812 11.2783 11.2012 10.6983M3.49999 20.5L15.7974 8.20258C16.1822 7.8178 16.1822 7.19396 15.7974 6.80918M3.49999 20.5L14.3832 9.61679C14.768 9.23202 14.768 8.60817 14.3832 8.22339M3.49999 20.5L4.80579 19.1942C5.86572 18.1343 7.49818 17.9015 8.81212 18.6229M3.49999 20.5L7.64486 16.3551C8.62692 15.3731 10.2192 15.3731 11.2012 16.3551M3.49999 20.5L11.1804 12.8196C11.7719 12.2281 12.731 12.2281 13.3225 12.8196M3.49999 20.5L15.7766 8.22339C16.1729 7.82712 16.8153 7.82712 17.2116 8.22339M3.49999 20.5L14.3624 9.63761C14.7586 9.24134 15.4011 9.24134 15.7974 9.63761M6.59316 11.7259L7.12585 12.6137C7.55208 13.3241 7.32173 14.2455 6.61136 14.6717C6.37824 14.8116 6.11148 14.8855 5.83961 14.8855L4.77422 14.8855C3.9458 14.8855 3.27422 14.2139 3.27422 13.3855C3.27422 13.1136 3.34811 12.8468 3.48799 12.6137L4.02068 11.7259C4.4469 11.0155 5.36829 10.7852 6.07866 11.2114M6.59316 11.7259C6.46648 11.5148 6.28979 11.3381 6.07866 11.2114M6.59316 11.7259L6.99873 12.4043C7.13411 12.4445 7.27748 12.466 7.42587 12.466L8.49126 12.466C8.76313 12.466 9.02988 12.3921 9.26301 12.2523C9.97338 11.8261 10.2037 10.9047 9.7775 10.1943M6.07866 11.2114C6.03209 11.1834 5.98461 11.1583 5.93643 11.136C5.92913 11.0807 5.92587 11.0238 5.92587 10.966C5.92587 10.6942 5.99976 10.4274 6.13963 10.1943L6.67233 9.30647C7.09855 8.5961 8.01994 8.36575 8.73031 8.79197M11.4071 16.8949L12.2949 17.4276C12.506 17.5543 12.6827 17.731 12.8094 17.9421C13.2356 18.6525 13.0053 19.5739 12.2949 20.0001M11.4071 16.8949C10.6967 16.4687 9.77533 16.6991 9.34911 17.4094C9.20923 17.6426 9.13535 17.9093 9.13535 18.1812L9.13535 19.2466C9.13535 20.075 9.80692 20.7466 10.6353 20.7466C10.9072 20.7466 11.174 20.6727 11.4071 20.5328L12.2949 20.0001M11.4071 16.8949L11.6162 17.0211C11.5762 16.886 11.5548 16.743 11.5548 16.5949L11.5548 15.5295C11.5548 15.2577 11.6287 14.9909 11.7685 14.7578C12.1947 14.0474 13.1161 13.8171 13.8265 14.2433M12.2949 20.0001C12.9587 19.6018 13.2034 18.7712 12.8839 18.0853C12.94 18.0917 12.997 18.0949 13.0548 18.0949C13.3266 18.0949 13.5934 18.021 13.8265 17.8812L14.7143 17.3485C15.4247 16.9222 15.655 16.0009 15.2288 15.2905M9.7775 10.1943L9.24481 9.30647C9.11813 9.09534 8.94144 8.91865 8.73031 8.79197M9.7775 10.1943C9.80602 10.2418 9.8316 10.2903 9.85429 10.3395L9.96141 10.3447L11.0268 10.3447C11.2987 10.3447 11.5654 10.2708 11.7985 10.131C12.5089 9.70473 12.7393 8.78334 12.313 8.07297L11.7803 7.18515C11.6537 6.97402 11.477 6.79732 11.2658 6.67065C10.5555 6.24443 9.63409 6.47478 9.20786 7.18515L8.67517 8.07297C8.5656 8.25558 8.49652 8.45883 8.47298 8.66888C8.5609 8.70108 8.64706 8.74202 8.73031 8.79197M15.2288 15.2905C15.1022 15.0794 14.9255 14.9027 14.7143 14.776L13.8265 14.2433M15.2288 15.2905C15.2788 15.3737 15.3197 15.4599 15.3518 15.5491C15.562 15.5243 15.7652 15.4552 15.9478 15.3456L16.8357 14.8129C17.546 14.3867 17.7764 13.4653 17.3501 12.755C17.2235 12.5438 17.0468 12.3671 16.8357 12.2405L15.9478 11.7078C15.2375 11.2815 14.3161 11.5119 13.8898 12.2223C13.75 12.4554 13.6761 12.7221 13.6761 12.994L13.6761 14.0594L13.6813 14.1665C13.7305 14.1892 13.779 14.2148 13.8265 14.2433M14.6484 5.83691C15.0629 6.52788 14.8389 7.42411 14.1479 7.83869C13.9212 7.97475 13.6617 8.04662 13.3972 8.04662L13.2478 8.04662C12.442 8.04662 11.7888 7.39338 11.7888 6.58758C11.7888 6.32314 11.8607 6.06367 11.9967 5.83691C12.436 5.10468 13.3858 4.86724 14.118 5.30658C14.3356 5.43715 14.5178 5.61929 14.6484 5.83691ZM18.891 10.0795C19.3056 10.7705 19.0815 11.6668 18.3905 12.0813C18.1638 12.2174 17.9043 12.2893 17.6399 12.2893L17.4905 12.2893C16.6847 12.2893 16.0314 11.636 16.0314 10.8302C16.0314 10.5658 16.1033 10.3063 16.2393 10.0795C16.6787 9.34732 17.6284 9.10988 18.3607 9.54922C18.5783 9.67979 18.7604 9.86193 18.891 10.0795ZM17.4768 4.4227C17.8914 5.11367 17.6673 6.0099 16.9763 6.42448C16.7496 6.56053 16.4901 6.6324 16.2257 6.6324L16.0762 6.6324C15.2704 6.6324 14.6172 5.97917 14.6172 5.17336C14.6172 4.90892 14.6891 4.64945 14.8251 4.42269C15.2645 3.69046 16.2142 3.45303 16.9465 3.89236C17.1641 4.02294 17.3462 4.20507 17.4768 4.4227ZM20.3052 7.25112C20.7198 7.94209 20.4957 8.83832 19.8048 9.25291C19.578 9.38896 19.3185 9.46083 19.0541 9.46083L18.9047 9.46083C18.0989 9.46083 17.4456 8.8076 17.4456 8.00179C17.4456 7.73735 17.5175 7.47788 17.6536 7.25112C18.0929 6.51889 19.0426 6.28145 19.7749 6.72079C19.9925 6.85137 20.1746 7.0335 20.3052 7.25112ZM21.0123 3.71559C21.4269 4.40656 21.2028 5.30279 20.5119 5.71737C20.2851 5.85343 20.0256 5.9253 19.7612 5.9253L19.6118 5.9253C18.806 5.9253 18.1527 5.27206 18.1527 4.46626C18.1527 4.20182 18.2246 3.94235 18.3607 3.71559C18.8 2.98336 19.7498 2.74592 20.482 3.18526C20.6996 3.31583 20.8817 3.49797 21.0123 3.71559Z" stroke="white" stroke-linecap="round"/>
</g>
<defs>
<clipPath id="clip0_603_981">
<rect width="24" height="24" fill="white"/>
</clipPath>
</defs>
</svg>
