<svg width="16" height="16" viewBox="0 0 16 16" fill="none" xmlns="http://www.w3.org/2000/svg">
<path fill-rule="evenodd" clip-rule="evenodd" d="M10.8734 9.93334L14.4734 13.5267C14.5996 13.6519 14.6706 13.8223 14.6706 14C14.6706 14.1778 14.5996 14.3482 14.4734 14.4733C14.3482 14.5996 14.1778 14.6705 14 14.6705C13.8223 14.6705 13.6519 14.5996 13.5267 14.4733L9.93337 10.8733C9.00168 11.6047 7.85114 12.0015 6.66671 12C3.72119 12 1.33337 9.6122 1.33337 6.66668C1.33337 3.72116 3.72119 1.33334 6.66671 1.33334C9.61223 1.33334 12 3.72116 12 6.66668C12.0015 7.85111 11.6047 9.00165 10.8734 9.93334ZM6.66671 2.66668C4.45757 2.66668 2.66671 4.45754 2.66671 6.66668C2.66671 8.87582 4.45757 10.6667 6.66671 10.6667C8.87585 10.6667 10.6667 8.87582 10.6667 6.66668C10.6667 4.45754 8.87585 2.66668 6.66671 2.66668Z" fill="white"/>
</svg>
