<svg width="24" height="24" viewBox="0 0 24 24" fill="none" xmlns="http://www.w3.org/2000/svg">
<path d="M10 3H15M11 10.0731V3H14V10L19.044 17.9262C19.637 18.8581 19.3623 20.0943 18.4304 20.6873C18.1095 20.8915 17.737 21 17.3567 21H7.65646C6.55189 21 5.65646 20.1046 5.65646 19C5.65646 18.6176 5.76611 18.2432 5.9724 17.9211L11 10.0731ZM7.85001 15H17.2L19.0556 17.9299C19.6466 18.8631 19.3692 20.0986 18.4361 20.6896C18.116 20.8924 17.7449 21 17.366 21H7.65968C6.55511 21 5.65968 20.1046 5.65968 19C5.65968 18.6171 5.76961 18.2422 5.97641 17.9199L7.85001 15Z" stroke="white" stroke-linecap="round"/>
</svg>
